fd_4_states
version=1
nRows=47
nColumns=17
inDegrees=yes

# SIMM Motion File Header:
name fd_4_states
datacolumns 17
datarows 47
otherdata 1
range 0.252980 0.330827
endheader
time	/jointset/r_shoulder/r_shoulder_elev/value	/jointset/r_shoulder/r_shoulder_elev/speed	/jointset/r_elbow/r_elbow_flex/value	/jointset/r_elbow/r_elbow_flex/speed	/forceset/TRIlong/activation	/forceset/TRIlong/fiber_length	/forceset/TRIlat/activation	/forceset/TRIlat/fiber_length	/forceset/TRImed/activation	/forceset/TRImed/fiber_length	/forceset/BIClong/activation	/forceset/BIClong/fiber_length	/forceset/BICshort/activation	/forceset/BICshort/fiber_length	/forceset/BRA/activation	/forceset/BRA/fiber_length
      0.252980	      0.040760	      0.074088	     30.396232	    200.152191	      0.068781	      0.147647	      0.085124	      0.081610	      0.079412	      0.076728	      0.469224	      0.137200	      0.143176	      0.137490	      0.088122	      0.085937
      0.255134	      0.040909	      0.064026	     30.827346	    200.188812	      0.067225	      0.147839	      0.084532	      0.081790	      0.078835	      0.076907	      0.465698	      0.137015	      0.142636	      0.137313	      0.085849	      0.085847
      0.257288	      0.041038	      0.056552	     31.258533	    200.217213	      0.065725	      0.148030	      0.083961	      0.081969	      0.078279	      0.077085	      0.462406	      0.136830	      0.142116	      0.137131	      0.083662	      0.085758
      0.259901	      0.041175	      0.047862	     31.781821	    200.245428	      0.063975	      0.148261	      0.083294	      0.082186	      0.077629	      0.077301	      0.458702	      0.136603	      0.141512	      0.136904	      0.081121	      0.085649
      0.260548	      0.041206	      0.046346	     31.911441	    200.249226	      0.063553	      0.148319	      0.083177	      0.082240	      0.077516	      0.077355	      0.458275	      0.136547	      0.141308	      0.136847	      0.080520	      0.085622
      0.261196	      0.041236	      0.045115	     32.041063	    200.251666	      0.063135	      0.148376	      0.083095	      0.082293	      0.077438	      0.077408	      0.458205	      0.136490	      0.141059	      0.136790	      0.079936	      0.085595
      0.263771	      0.041351	      0.046325	     32.556831	    200.240056	      0.061518	      0.148603	      0.082780	      0.082505	      0.077136	      0.077619	      0.457939	      0.136261	      0.140099	      0.136561	      0.077675	      0.085487
      0.265746	      0.041441	      0.045330	     32.952212	    200.235722	      0.060324	      0.148776	      0.082547	      0.082667	      0.076912	      0.077780	      0.457748	      0.136081	      0.139393	      0.136383	      0.076010	      0.085405
      0.267720	      0.041533	      0.047109	     33.347574	    200.223820	      0.059167	      0.148949	      0.082321	      0.082829	      0.076695	      0.077942	      0.457569	      0.135899	      0.138712	      0.136203	      0.074400	      0.085322
      0.270335	      0.041654	      0.043908	     33.871128	    200.227133	      0.057691	      0.149178	      0.082031	      0.083043	      0.076427	      0.078155	      0.457315	      0.135654	      0.137777	      0.135962	      0.072347	      0.085213
      0.272033	      0.041723	      0.037970	     34.211110	    200.242785	      0.056765	      0.149326	      0.081836	      0.083182	      0.076339	      0.078293	      0.456876	      0.135494	      0.136537	      0.135805	      0.071020	      0.085142
      0.273731	      0.041782	      0.030491	     34.551125	    200.264182	      0.055864	      0.149473	      0.081644	      0.083321	      0.076264	      0.078430	      0.456421	      0.135332	      0.135252	      0.135648	      0.069725	      0.085070
      0.276704	      0.041853	      0.018086	     35.146592	    200.300390	      0.054344	      0.149731	      0.081321	      0.083564	      0.076138	      0.078671	      0.455680	      0.135045	      0.133099	      0.135373	      0.067546	      0.084946
      0.279297	      0.041887	      0.008142	     35.666032	    200.328300	      0.053076	      0.149955	      0.081050	      0.083776	      0.076032	      0.078881	      0.455084	      0.134793	      0.131318	      0.135131	      0.065732	      0.084837
      0.280249	      0.041893	      0.005868	     35.856771	    200.333731	      0.052623	      0.150037	      0.080964	      0.083853	      0.076000	      0.078958	      0.454905	      0.134699	      0.130762	      0.135042	      0.065089	      0.084797
      0.280844	      0.041897	      0.004665	     35.975857	    200.336252	      0.052343	      0.150088	      0.080959	      0.083902	      0.076088	      0.079006	      0.454983	      0.134641	      0.131000	      0.134986	      0.064707	      0.084772
      0.281438	      0.041899	      0.004174	     36.094944	    200.336502	      0.052067	      0.150139	      0.080957	      0.083950	      0.076186	      0.079053	      0.455076	      0.134582	      0.131283	      0.134929	      0.064330	      0.084748
      0.283760	      0.041914	      0.010697	     36.559992	    200.311477	      0.051010	      0.150338	      0.080948	      0.084137	      0.076487	      0.079238	      0.455396	      0.134351	      0.132184	      0.134703	      0.062892	      0.084650
      0.286081	      0.041951	      0.021624	     37.024957	    200.273042	      0.049991	      0.150537	      0.080941	      0.084324	      0.076693	      0.079423	      0.455660	      0.134117	      0.132828	      0.134471	      0.061508	      0.084553
      0.288403	      0.042013	      0.031094	     37.489837	    200.239201	      0.049008	      0.150735	      0.080933	      0.084511	      0.076835	      0.079608	      0.455876	      0.133880	      0.133290	      0.134235	      0.060175	      0.084455
      0.290175	      0.042070	      0.032452	     37.844734	    200.231063	      0.048281	      0.150885	      0.080926	      0.084654	      0.076917	      0.079750	      0.456069	      0.133698	      0.133467	      0.134053	      0.059188	      0.084381
      0.291138	      0.042101	      0.031078	     38.037548	    200.232947	      0.047894	      0.150967	      0.080912	      0.084731	      0.076996	      0.079826	      0.456595	      0.133599	      0.133019	      0.133954	      0.058640	      0.084341
      0.292101	      0.042129	      0.028148	     38.230366	    200.239550	      0.047513	      0.151049	      0.080897	      0.084809	      0.077068	      0.079903	      0.457137	      0.133498	      0.132521	      0.133856	      0.058098	      0.084300
      0.295015	      0.042188	      0.009994	     38.813869	    200.288308	      0.046393	      0.151295	      0.080853	      0.085043	      0.077229	      0.080135	      0.458529	      0.133192	      0.131068	      0.133557	      0.056506	      0.084178
      0.297527	      0.042178	     -0.019672	     39.317126	    200.374008	      0.045467	      0.151506	      0.080817	      0.085244	      0.077319	      0.080334	      0.459482	      0.132925	      0.129876	      0.133300	      0.055192	      0.084073
      0.300039	      0.042081	     -0.058758	     39.820640	    200.487948	      0.044575	      0.151717	      0.080785	      0.085446	      0.077405	      0.080535	      0.460280	      0.132656	      0.128765	      0.133042	      0.053929	      0.083968
      0.300455	      0.042055	     -0.066757	     39.904113	    200.511401	      0.044430	      0.151752	      0.080912	      0.085479	      0.077563	      0.080568	      0.460543	      0.132611	      0.128785	      0.132999	      0.053724	      0.083951
      0.300975	      0.042018	     -0.075801	     40.008233	    200.537762	      0.044251	      0.151796	      0.081145	      0.085519	      0.077821	      0.080608	      0.460936	      0.132555	      0.129169	      0.132945	      0.053471	      0.083929
      0.302792	      0.041861	     -0.092687	     40.372766	    200.585242	      0.043636	      0.151947	      0.081825	      0.085660	      0.078572	      0.080748	      0.462182	      0.132357	      0.130305	      0.132753	      0.052601	      0.083853
      0.304610	      0.041691	     -0.091463	     40.737331	    200.578254	      0.043037	      0.152099	      0.082333	      0.085802	      0.079131	      0.080889	      0.463251	      0.132157	      0.131179	      0.132558	      0.051756	      0.083777
      0.307430	      0.041455	     -0.074803	     41.303054	    200.523523	      0.042139	      0.152334	      0.082877	      0.086023	      0.079729	      0.081109	      0.464617	      0.131845	      0.132152	      0.132249	      0.050490	      0.083659
      0.309512	      0.041310	     -0.065467	     41.720455	    200.492506	      0.041500	      0.152506	      0.083147	      0.086186	      0.080025	      0.081272	      0.465437	      0.131613	      0.132656	      0.132018	      0.049591	      0.083572
      0.310201	      0.041265	     -0.064110	     41.858571	    200.487336	      0.041292	      0.152563	      0.083234	      0.086240	      0.080129	      0.081326	      0.465724	      0.131536	      0.132686	      0.131941	      0.049309	      0.083544
      0.310890	      0.041221	     -0.063475	     41.996684	    200.484290	      0.041087	      0.152620	      0.083424	      0.086294	      0.080411	      0.081379	      0.466334	      0.131459	      0.131955	      0.131865	      0.049095	      0.083515
      0.311579	      0.041178	     -0.062337	     42.134795	    200.479665	      0.040885	      0.152676	      0.083602	      0.086348	      0.080676	      0.081432	      0.466932	      0.131381	      0.131188	      0.131789	      0.048887	      0.083486
      0.313909	      0.041043	     -0.050729	     42.601860	    200.439950	      0.040213	      0.152868	      0.084076	      0.086529	      0.081380	      0.081612	      0.468718	      0.131117	      0.128670	      0.131534	      0.048202	      0.083388
      0.316239	      0.040944	     -0.034324	     43.068808	    200.384478	      0.039565	      0.153059	      0.084402	      0.086711	      0.081864	      0.081792	      0.470186	      0.130850	      0.126265	      0.131282	      0.047540	      0.083290
      0.318982	      0.040875	     -0.015879	     43.618464	    200.318282	      0.038829	      0.153283	      0.084659	      0.086926	      0.082244	      0.082006	      0.471585	      0.130534	      0.123569	      0.130986	      0.046790	      0.083174
      0.319970	      0.040862	     -0.011688	     43.816291	    200.300667	      0.038572	      0.153364	      0.084727	      0.087004	      0.082344	      0.082083	      0.472015	      0.130420	      0.122632	      0.130880	      0.046528	      0.083132
      0.320455	      0.040857	     -0.009872	     43.913402	    200.292397	      0.038446	      0.153403	      0.084990	      0.087041	      0.082430	      0.082120	      0.472854	      0.130364	      0.122291	      0.130828	      0.046370	      0.083112
      0.320939	      0.040852	     -0.007620	     44.010508	    200.282650	      0.038322	      0.153443	      0.085315	      0.087078	      0.082523	      0.082158	      0.473883	      0.130307	      0.121992	      0.130776	      0.046202	      0.083091
      0.322878	      0.040852	      0.010132	     44.398637	    200.217015	      0.037834	      0.153600	      0.086387	      0.087224	      0.082831	      0.082308	      0.477599	      0.130079	      0.120823	      0.130565	      0.045544	      0.083010
      0.324816	      0.040896	      0.034991	     44.786612	    200.132368	      0.037360	      0.153757	      0.087174	      0.087371	      0.083057	      0.082458	      0.480753	      0.129847	      0.119695	      0.130353	      0.044905	      0.082929
      0.327852	      0.041048	      0.060573	     45.394071	    200.050132	      0.036643	      0.154002	      0.088008	      0.087603	      0.083295	      0.082694	      0.484773	      0.129481	      0.118006	      0.130017	      0.043941	      0.082802
      0.329795	      0.041164	      0.055754	     45.782754	    200.069816	      0.036201	      0.154158	      0.088365	      0.087752	      0.083397	      0.082844	      0.486862	      0.129244	      0.116973	      0.129800	      0.043346	      0.082720
      0.330311	      0.041191	      0.051380	     45.886037	    200.085273	      0.036085	      0.154199	      0.088435	      0.087792	      0.083497	      0.082884	      0.487176	      0.129182	      0.116679	      0.129742	      0.043195	      0.082698
      0.330827	      0.041216	      0.045944	     45.989328	    200.104268	      0.035971	      0.154240	      0.088481	      0.087831	      0.083799	      0.082924	      0.487048	      0.129119	      0.116317	      0.129684	      0.043056	      0.082676
